<svg xmlns="http://www.w3.org/2000/svg" xmlns:xlink="http://www.w3.org/1999/xlink" width="73" height="43" viewBox="0 0 73 43">
    <defs>
        <filter id="prefix__a" width="110%" height="110%" x="-5%" y="-2.5%" filterUnits="objectBoundingBox">
            <feOffset dy="1" in="SourceAlpha" result="shadowOffsetOuter1"/>
            <feGaussianBlur in="shadowOffsetOuter1" result="shadowBlurOuter1" stdDeviation=".5"/>
            <feColorMatrix in="shadowBlurOuter1" values="0 0 0 0 0.466666667 0 0 0 0 0.549019608 0 0 0 0 0.564705882 0 0 0 0.16 0"/>
        </filter>
        <path id="prefix__b" d="M19.861 40c10.39 0 19.724-5.767 19.724-16.176 0-5.725 2.381-14.771-4.265-19.858C28.674-1.12 17.681-.354 13.215 1.03 8.925 2.36 0 5.767 0 16.176 0 21.272.643 26.65 3.924 31.05 7.344 35.638 14.558 40 19.86 40z"/>
    </defs>
    <g fill="none" fill-rule="evenodd">
        <g fill="#01363D" stroke="#01363D">
            <path d="M.014 21.091c-.053-.957.039-1.915.352-2.857.151-.455.209-.946.275-1.426.193-1.397.434-2.769 1.166-4.018.324-.553.486-1.2.745-1.793.083-.19.215-.38.373-.511.168-.138.396-.146.61-.048.214.098.323.28.36.499.018.102-.002.22-.04.318-.288.757-.51 1.552-.898 2.255-.536.973-.792 2.008-.928 3.083-.102.807-.208 1.61-.49 2.377-.19.518-.21 1.06-.218 1.6-.023 2.006.12 3.99.518 5.968.25 1.25.712 2.336 1.395 3.402.95 1.481 2.027 2.798 3.528 3.735.138.085.273.177.399.279 2.656 2.135 5.831 2.969 9.075 3.618.418.083.86.065 1.29.058.486-.008.971-.051 1.455-.09 2.425-.191 2.782-.275 5.001-1.19.299-.123.597-.257.872-.425.827-.508 1.644-1.032 2.46-1.56.077-.05.16-.169.157-.252-.009-.233-.213-.183-.356-.184-.54-.002-1.08.014-1.62.007-.268-.002-.541-.016-.804-.068-.149-.029-.29-.131-.42-.223-.204-.143-.282-.47-.197-.728.075-.227.243-.344.46-.408.051-.015.104-.039.156-.037 1.57.07 3.124-.132 4.683-.269.21-.019.427.022.639.054.226.035.522.335.526.558.005.322.014.653-.051.965-.186.9-.403 1.793-.619 2.687-.203.84-.417 1.678-.634 2.515-.04.154-.106.304-.173.45-.122.269-.523.425-.833.334-.226-.067-.51-.38-.483-.592.077-.588.164-1.176.28-1.757.104-.528.256-1.046.367-1.572.008-.036-.172-.171-.222-.151-.655.257-1.257.615-1.8 1.062-.678.558-1.442.952-2.27 1.218-.872.28-1.686.718-2.602.882-1.824.329-3.658.232-5.492.195-1.406-.374-2.822-.717-4.215-1.135-.824-.247-1.62-.598-2.414-.935-.395-.167-.784-.372-1.133-.62-1.145-.815-2.271-1.654-3.4-2.488-.886-.655-1.513-1.542-2.112-2.443C1.053 28.907.84 28.45.398 25.474c-.213-1.44-.452-2.89-.384-4.383M38.742 21.612c.034.763-.033 1.613-.38 2.436-.165.393-.244.829-.318 1.253-.143.81-.47 1.55-.802 2.29-.364.812-.99 1.407-1.675 1.945-.197.155-.575.133-.753-.028-.187-.168-.28-.546-.155-.745.141-.226.28-.47.478-.64.866-.746 1.218-1.764 1.515-2.81.148-.52.192-1.077.396-1.57.45-1.094.442-2.218.353-3.356-.113-1.46-.37-2.895-.824-4.292-.116-.359-.18-.735-.3-1.092-.138-.408-.255-.838-.479-1.197-.628-1.01-1.308-1.985-1.964-2.977-.45-.68-.98-1.29-1.586-1.836-.361-.325-.727-.649-1.06-1.001-2.139-2.26-4.858-3.558-7.687-4.664-1.065-.416-2.212-.486-3.336-.587-2.317-.209-4.501.262-6.535 1.42-.56.32-1.164.563-1.74.856-.078.04-.133.16-.161.254-.04.136.035.204.176.214.215.015.43.036.643.065.749.1 1.498.194 2.245.31.208.033.412.12.606.207.288.13.45.517.363.821-.09.316-.407.554-.733.52-.482-.052-.96-.139-1.444-.184-1.181-.11-2.364-.205-3.546-.307-.268-.023-.539-.037-.803-.083-.356-.062-.666-.464-.654-.827.006-.162.025-.324.055-.483.264-1.38.52-2.763.806-4.139.076-.365.232-.718.38-1.064.115-.268.533-.39.847-.281.238.082.465.373.433.62-.048.373-.17.737-.197 1.11-.05.683-.534 1.315-.238 2.037.695-.137 1.278-.541 1.914-.817.147-.065.287-.152.42-.245.765-.533 1.643-.784 2.515-1.079 2.622-.883 5.225-.492 7.832.024.366.073.718.233 1.067.377 1.85.767 3.59 1.747 5.274 2.827.405.26.772.59 1.124.922.707.668 1.374 1.38 2.092 2.035.968.884 1.738 1.92 2.442 3.016.466.727.943 1.449 1.396 2.185.197.32.422.651.508 1.008.392 1.627 1.045 3.183 1.265 4.86.113.861.231 1.714.225 2.692" transform="translate(1 2) translate(32)"/>
        </g>
        <g transform="translate(1 2) rotate(-180 20 20)">
            <use fill="#000" filter="url(#prefix__a)" xlink:href="#prefix__b"/>
            <use fill="#3294F1" xlink:href="#prefix__b"/>
        </g>
        <path fill="#FEFEFE" d="M26.5 9.167c2.393 0 4.333 1.94 4.333 4.333 0 1.144-.443 2.185-1.168 2.96.406 1.103.627 2.296.627 3.54 0 3.228-1.486 6.108-3.811 7.995-.208 2.2-2.06 3.922-4.314 3.922-1.405 0-2.653-.669-3.445-1.704-4.446-.55-8.013-3.937-8.835-8.294C8.205 21.324 7 19.719 7 17.833 7 15.44 8.94 13.5 11.333 13.5c.22 0 .437.016.648.048 1.887-2.342 4.778-3.84 8.019-3.84 1.244 0 2.437.221 3.541.626.774-.724 1.815-1.167 2.959-1.167zM20 12.958c-2.056 0-3.906.881-5.193 2.286.54.722.86 1.618.86 2.59 0 1.732-1.017 3.227-2.487 3.92.606 2.37 2.416 4.257 4.738 4.975.397-1.985 2.148-3.479 4.249-3.479 1.243 0 2.364.523 3.154 1.362 1.072-1.235 1.72-2.848 1.72-4.612 0-.758-.12-1.488-.34-2.172l-.201.005c-2.393 0-4.333-1.94-4.333-4.333 0-.067.001-.134.004-.2-.683-.222-1.413-.342-2.171-.342z" transform="translate(1 2)"/>
    </g>
</svg>
