<svg xmlns="http://www.w3.org/2000/svg" width="58" height="25"><path fill="#01363D" fill-rule="evenodd" d="M32.438 21.861c-2.497.155-5.034.559-7.575.972-1.938.316-3.889.557-5.839.793-1.953.238-3.91.358-5.864.236-3.027-.19-5.613-1.143-7.722-2.922-1-.845-1.733-1.832-2.169-2.998-.47-1.261-.855-2.538-1.069-3.86-.547-3.39-1.109-6.777-1.643-10.17a24.881 24.881 0 01-.25-2.464C.277.9.89.5 1.543.58c1.082.133 1.6.54 1.733 1.424.124.817.176 1.646.307 2.461.557 3.453 1.141 6.9 1.693 10.354.171 1.075.51 2.102.945 3.103.971 2.24 2.865 3.577 5.665 3.961 2.082.286 4.192.16 6.3-.12 3.222-.432 6.44-.91 9.665-1.305 1.881-.229 3.727-.601 5.584-.947 2.973-.554 5.96-1.027 8.944-1.527a20.876 20.876 0 003.932-1.037c.482-.182.741-.48.676-.914-.12-.815-.294-1.623-.458-2.43-.062-.31-.164-.612-.232-.92-.04-.183.3-.575.517-.579.448-.01.918-.059 1.337.029.79.165 1.568.385 2.323.635 1.862.617 3.651 1.358 5.329 2.264 1.706.92 1.851 1.74.59 3.136-.327.362-.704.695-1.072 1.032-1.368 1.25-2.725 2.508-3.913 3.887a6.268 6.268 0 01-.924.875c-.77.59-1.904.372-2.176-.43-.163-.48-.228-.99-.322-1.488-.143-.748-.254-1.503-.415-2.247-.092-.421-.48-.601-1.01-.496-.816.163-1.632.326-2.437.528-3.822.955-7.725 1.449-11.686 2.032"/></svg>