<svg xmlns="http://www.w3.org/2000/svg" width="101" height="64"><path fill="#01363D" fill-rule="evenodd" d="M26.492 53.32c-.235 1.783.595 3.431 1.653 4.999 1.224 1.813 2.942 2.53 5.078 2.126a8.514 8.514 0 002.207-.754c1.772-.892 2.379-2.606 1.677-4.452-.498-1.308-1.346-2.378-2.274-3.39-1.735-1.892-3.754-3.426-5.968-4.711-.084-.049-.181-.073-.268-.117-.386-.195-.772-.05-.927.39-.652 1.849-1.228 3.716-1.178 5.908zm39.641-5.836c1.102.043 2.152-.208 3.169-.567.451-.16.882-.432 1.257-.734.925-.742 1.17-1.771.775-2.89-.502-1.423-1.312-2.62-2.534-3.52-.63-.465-1.302-.882-1.887-1.398-3.347-2.943-7.343-4.408-11.653-5.172-.188-.033-.405-.045-.578.017-.166.059-.411.227-.413.35-.008.678-.044 1.376.097 2.031.854 3.988 3.068 7.16 6.094 9.794 1.612 1.404 3.574 1.962 5.673 2.089zM87.522 4.02c0-.88-.045-1.764.012-2.64.056-.853 1.124-1.564 1.954-1.339.372.101.763.234 1.073.455 2.87 2.055 5.722 4.145 8.202 6.671 1.79 1.822 1.736 2.612-.302 4.311-2.41 2.009-4.896 3.925-7.355 5.873-.226.18-.497.309-.759.438-.62.306-1.494-.109-1.605-.792-.174-1.065-.307-2.136-.45-3.205a9.799 9.799 0 01-.069-.88c-.116-2.718-.104-2.755-2.837-2.842-4.949-.158-9.782.384-14.465 2.078-2.043.74-3.901 1.788-5.745 2.924-3.522 2.169-6.047 5.24-8.278 8.625-1.196 1.816-2.171 3.722-2.64 5.86a.992.992 0 00.646 1.163c.185.064.365.15.554.193.286.066.579.103.868.156 4.326.795 8.223 2.53 11.652 5.3.839.677 1.713 1.313 2.541 2.003 1.23 1.025 2.094 2.32 2.686 3.804 1.042 2.609.394 4.6-1.926 6.074-2.314 1.47-4.833 1.52-7.385 1.04-2.153-.406-4.058-1.384-5.677-2.918-3.004-2.846-5.016-6.248-5.945-10.283-.044-.191-.063-.387-.101-.58-.616-3.033-.227-3.091-3.842-2.908-7.859.399-14.049 3.87-18.483 10.402-.217.32-.377.683-.546 1.034-.157.325.047.56.249.77.133.14.295.268.468.348 2.45 1.136 4.325 3.018 6.28 4.8 1.105 1.007 1.941 2.199 2.626 3.514A6.15 6.15 0 0139.615 56c.154 2.743-.993 4.767-3.489 5.902-1.902.865-3.852 1.406-5.969.63-1.43-.526-2.605-1.35-3.533-2.533-1.974-2.515-2.845-5.363-2.323-8.537.285-1.737.764-3.441 1.154-5.16.094-.416-.097-.794-.495-.922-.558-.18-1.116-.42-1.69-.48-3.64-.388-6.995.227-9.916 2.665-3.045 2.544-5.591 5.494-7.626 8.884-1.008 1.68-1.928 3.413-2.882 5.125-.44.79-.974 1.477-1.877 1.767-.292.093-.59.054-.77-.23-.101-.157-.19-.35-.198-.531a1.18 1.18 0 01.14-.563C2.437 57.455 4.92 53.013 8.34 49.16a25.447 25.447 0 015.337-4.582c1.345-.862 2.817-1.338 4.363-1.674 2.547-.553 5.07-.453 7.563.231.794.218 1.321.053 1.745-.62 1.367-2.17 2.961-4.145 4.928-5.81 3.425-2.899 7.26-4.98 11.67-5.935 1.642-.356 3.31-.366 4.977-.396.686-.013 1.373.012 2.059-.01.558-.018.886-.385 1.06-.869.131-.367.172-.764.28-1.14.406-1.421.924-2.813 1.737-4.04 1.405-2.123 2.902-4.186 4.373-6.265.225-.318.49-.618.78-.88 3.215-2.913 6.639-5.492 10.798-6.957 3.538-1.246 7.153-2.036 10.914-2.144 1.764-.05 3.527-.16 5.288-.267 1.075-.065 1.42-.43 1.437-1.43a9.916 9.916 0 00-.005-.588c-.024-.588-.054-1.175-.081-1.763h-.041z"/></svg>