<svg xmlns="http://www.w3.org/2000/svg" width="47" height="91"><path fill="#01363D" fill-rule="evenodd" d="M27.482 80.594a445.563 445.563 0 01-1.887-9.411c-2.417-12.917-3.045-25.978-2.997-39.092.02-5.112.107-10.224.16-15.336.046-4.489.288-8.966.91-13.419.087-.62.147-1.245.174-1.869.022-.512-.661-.934-1.178-.77-1.214.381-2.017 1.184-2.34 2.399-.184.69-.286 1.41-.341 2.123-.214 2.682-.44 5.365-.574 8.051-.182 3.673-.287 7.35-.421 11.025-.44 12.032.095 24.027 1.225 36 .481 5.09 1.19 10.148 2.058 15.185a7.5 7.5 0 01.088.794.385.385 0 01-.086.231c-.14.186-.313.202-.47.035a72.875 72.875 0 01-5.879-6.987c-2.661-3.609-5.41-7.147-8.348-10.536a108.468 108.468 0 00-3.264-3.573 6.412 6.412 0 00-1.259-1c-.4-.248-.869-.206-1.291.01-.85.437-1.386 1.143-1.636 2.045-.12.436-.085.901.19 1.29.206.29.434.577.697.816 3.141 2.85 5.75 6.16 8.258 9.548a214.043 214.043 0 008.505 10.753c1.788 2.117 3.33 4.443 4.973 6.681.902 1.229 1.782 2.473 2.678 3.705.21.287.431.571.68.827.413.426 1.274.466 1.742.1.649-.51 1.18-1.11 1.456-1.903.059-.17.118-.342.143-.519.634-4.493 3.132-8.166 5.285-12.003 1.288-2.294 3.107-4.172 4.642-6.271.369-.505.834-.942 1.273-1.392 1.57-1.607 3.154-3.198 4.715-4.811.443-.458.783-.991.77-1.671-.008-.373-.118-.695-.418-.943-.382-.317-.816-.369-1.261-.208a2.09 2.09 0 00-.686.417 77.065 77.065 0 00-2.346 2.231c-.7.7-1.322 1.479-2.053 2.144-1.205 1.098-2.186 2.377-3.227 3.619-2.62 3.126-4.595 6.657-6.647 10.144-.365.62-.717 1.247-1.099 1.856-.086.138-.362.328-.398.3-.187-.146-.455-.327-.516-.615"/></svg>