<svg xmlns="http://www.w3.org/2000/svg" width="66" height="77"><path fill="#01363D" fill-rule="evenodd" d="M17.345 28.797c-.172 0-1.009-.003-1.845 0-3.13.017-5.963 1.1-8.594 2.644C4.01 33.14 2.5 35.812 2.2 39.163c-.18 2.022.532 3.676 1.997 5.054.938.88 2.044 1.463 3.235 1.87 1.488.51 3.018.908 4.599.928 3.66.048 7.312.088 10.92-.76 5.464-1.287 10.448-3.63 15.15-6.637.338-.216.46-.752.247-1.113-1.512-2.549-3.45-4.716-5.86-6.449a4.411 4.411 0 00-.825-.452c-4.356-1.886-8.793-3.387-14.318-2.807m-.285-2.112c5.836-.641 10.7.898 15.442 3.01 1.764.785 3.17 2.04 4.407 3.484 1.09 1.272 2.114 2.6 3.171 3.902.268.33.776.41 1.123.152.589-.437 1.192-.863 1.732-1.355 2.49-2.271 4.697-4.792 6.458-7.671 2.55-4.17 4.116-8.7 4.8-13.534.183-1.298-.065-1.728-1.239-2.169-1.667-.625-3.349-1.214-5.023-1.82-.394-.142-.796-.266-1.176-.44-.685-.317-.803-1.294-.242-1.87.146-.15.293-.3.452-.437a93.633 93.633 0 018.241-6.3c.775-.53 1.622-.968 2.477-1.358C59.045-.341 60.08.08 60.78 1.47c.188.374.351.762.503 1.152 1.486 3.808 2.968 7.616 4.447 11.426.076.194.12.4.174.603.246.932-.4 1.775-1.31 1.652a10.506 10.506 0 01-1.828-.422c-1.395-.454-2.768-.973-4.162-1.427-1.46-.475-1.974-.196-2.162 1.255-.34 2.618-1.154 5.096-2.015 7.577-1.328 3.826-3.463 7.18-5.983 10.278-1.38 1.696-3.09 3.123-4.668 4.656-.374.364-.8.678-1.216.995-.66.503-.887 1.142-.636 1.936.126.4.257.798.414 1.187 1.55 3.849 1.987 7.891 2.206 11.994.35 6.561-.632 12.963-2.13 19.309-.189.797-.624 1.54-.98 2.292-.164.347-.853.507-1.098.251-.202-.211-.385-.508-.426-.79-.043-.292.07-.617.155-.917 2.094-7.327 2.988-14.776 2.305-22.389-.271-3.035-.715-6.035-1.923-8.869-.122-.288-.24-.578-.37-.863-.205-.448-.614-.646-1.011-.446-.935.47-1.879.929-2.778 1.462-4.281 2.537-8.86 4.336-13.745 5.224-4.23.769-8.508 1.19-12.809.379-1.45-.274-2.854-.676-4.205-1.26a9.734 9.734 0 01-3.733-2.813C.63 43.472-.016 41.842 0 39.984c.04-4.558 1.932-8.162 5.868-10.453 2.908-1.694 6.068-2.854 9.529-2.846.733.002 1.467 0 1.663 0"/></svg>