<svg width="44" height="44" viewBox="0 0 44 44" fill="none" xmlns="http://www.w3.org/2000/svg">
<path d="M28 0H16C7.16344 0 0 7.16344 0 16V28C0 36.8366 7.16344 44 16 44H28C36.8366 44 44 36.8366 44 28V16C44 7.16344 36.8366 0 28 0Z" fill="#FA6123"/>
<path fill-rule="evenodd" clip-rule="evenodd" d="M20.901 24.322H23.12C23.546 24.322 23.931 24.171 24.213 23.929C24.49 23.683 24.663 23.348 24.663 22.976V12.365C24.663 11.611 23.963 11 23.098 11H20.879C20.453 11 20.067 11.15 19.786 11.392C19.509 11.639 19.336 11.974 19.336 12.346V22.956C19.336 23.71 20.037 24.322 20.901 24.322ZM22 27.768C20.343 27.768 19 28.939 19 30.384C19 31.828 20.343 33 22 33C23.657 33 25 31.828 25 30.384C25 28.939 23.657 27.768 22 27.768Z" fill="#FEFEFE"/>
</svg>
