<svg xmlns="http://www.w3.org/2000/svg" width="32" height="35"><g fill="none" fill-rule="evenodd"><path fill="#21B963" d="M19.917 24c6.234 0 11.834-3.46 11.834-9.706 0-3.435 1.429-8.862-2.559-11.914C25.205-.672 18.61-.213 15.93.618 13.355 1.416 8 3.46 8 9.705c0 3.058.386 6.285 2.354 8.925 2.053 2.753 6.38 5.37 9.563 5.37z" style="mix-blend-mode:multiply"/><path fill="#FF2629" d="M13.98 35c6.235 0 7.771-2.46 7.771-8.706 0-3.435 1.429-8.862-2.559-11.914-3.987-3.052-10.583-2.593-13.263-1.762C3.355 13.416 0 14.38 0 19.135c0 3.058 3.96 4.52 5.93 7.16C7.98 29.046 10.798 35 13.98 35z" style="mix-blend-mode:multiply"/></g></svg>