<svg width="35" height="38" xmlns="http://www.w3.org/2000/svg"><g fill="none" fill-rule="evenodd"><path d="M11.917 24c6.234 0 11.834-3.46 11.834-9.706 0-3.435 1.429-8.862-2.559-11.914C17.205-.672 10.61-.213 7.93.618 5.355 1.416 0 3.46 0 9.705c0 3.058.386 6.285 2.354 8.925C4.407 21.383 8.734 24 11.917 24z" fill="#F1EBDE" style="mix-blend-mode:multiply"/><path d="M23.917 38c6.234 0 5.674-5.755 5.674-12 0-3.435 7.589-6.568 3.601-9.62-3.987-3.052-10.583-2.593-13.263-1.762C17.355 15.416 12 17.46 12 23.705c0 3.058.386 6.285 2.354 8.925 2.053 2.753 6.38 5.37 9.563 5.37z" fill="#E0571F" style="mix-blend-mode:multiply"/></g></svg>