<svg xmlns="http://www.w3.org/2000/svg" width="32" height="35"><defs><filter id="a" width="100.9%" height="101.7%" x="-.5%" y="-.7%" filterUnits="objectBoundingBox"><feOffset dx="-2" dy="2" in="SourceAlpha" result="shadowOffsetOuter1"/><feColorMatrix in="shadowOffsetOuter1" result="shadowMatrixOuter1" values="0 0 0 0 0.527556335 0 0 0 0 0.519872481 0 0 0 0 0.407230444 0 0 0 0.210682745 0"/><feMerge><feMergeNode in="shadowMatrixOuter1"/><feMergeNode in="SourceGraphic"/></feMerge></filter></defs><g fill="none" fill-rule="evenodd" filter="url(#a)" transform="translate(-1024 -37)"><path fill="#FA6123" d="M1043.917 61c6.234 0 11.834-3.46 11.834-9.706 0-3.435 1.429-8.862-2.559-11.914-3.987-3.052-10.582-2.593-13.262-1.762-2.575.798-7.93 2.842-7.93 9.087 0 3.058.386 6.285 2.354 8.925 2.053 2.753 6.38 5.37 9.563 5.37z" style="mix-blend-mode:multiply"/><path fill="#292980" d="M1037.98 72c6.235 0 7.771-2.46 7.771-8.706 0-3.435 1.429-8.862-2.559-11.914-3.987-3.052-10.583-2.593-13.263-1.762-2.574.798-5.929 1.762-5.929 6.517 0 3.058 3.96 4.52 5.93 7.16 2.05 2.751 4.868 8.705 8.05 8.705z" style="mix-blend-mode:multiply"/></g></svg>