<?xml version="1.0" standalone="no"?>
<!DOCTYPE svg PUBLIC "-//W3C//DTD SVG 1.0//EN" "http://www.w3.org/TR/2001/REC-SVG-20010904/DTD/svg10.dtd">
<svg xmlns="http://www.w3.org/2000/svg" xmlns:xlink="http://www.w3.org/1999/xlink" width="130" height="40" viewBox="0 0 130 40">
    <defs>
        <path id="a" d="M.289.15h39.468v39.468H.29z"/>
    </defs>
    <g fill="none" fill-rule="evenodd">
        <path fill="#01363D" d="M118.79 17.313a3.03 3.03 0 0 0-1.624-.44c-.586 0-1.107.112-1.56.338a3.166 3.166 0 0 0-1.112.895v-.641a.427.427 0 0 0-.112-.305.377.377 0 0 0-.288-.118h-1.967c-.107 0-.201.04-.28.118a.41.41 0 0 0-.12.305v7.944c0 .112.04.21.12.295.079.085.173.127.28.127h2.127a.365.365 0 0 0 .288-.127.43.43 0 0 0 .112-.295v-4.615c0-.495.122-.882.368-1.157.246-.276.582-.415 1.008-.415.438 0 .772.136 1 .406.23.27.345.66.345 1.166v4.615a.409.409 0 0 0 .415.422h2.128a.368.368 0 0 0 .288-.127.433.433 0 0 0 .112-.295v-4.716c0-.811-.135-1.505-.408-2.079-.271-.574-.645-1.008-1.12-1.301zm-32.495 3.21H83.75v-.033c0-.54.11-.96.329-1.259.219-.299.531-.449.937-.449.405 0 .72.15.944.45.223.298.335.717.335 1.258v.033zm1.048-3.067c-.635-.389-1.41-.583-2.327-.583-1.271 0-2.279.377-3.025 1.132-.747.755-1.142 1.803-1.185 3.144v.524c.022 1.409.407 2.481 1.153 3.22.747.738 1.77 1.107 3.072 1.107.82 0 1.533-.14 2.136-.422.603-.282 1.062-.62 1.376-1.015.314-.394.472-.738.472-1.03a.293.293 0 0 0-.104-.229.356.356 0 0 0-.248-.093h-2.097a.687.687 0 0 0-.279.042.843.843 0 0 0-.232.211 2.145 2.145 0 0 1-.44.414c-.155.108-.36.161-.616.161-.395 0-.699-.155-.912-.465-.213-.31-.325-.718-.337-1.225v-.102h5.072a.387.387 0 0 0 .296-.126.433.433 0 0 0 .121-.313v-.422c0-.868-.158-1.643-.472-2.325a3.63 3.63 0 0 0-1.424-1.605zm20.078 4.657c-.033.596-.155 1.039-.368 1.326-.214.288-.54.431-.977.431-.438 0-.763-.143-.977-.431-.213-.287-.335-.73-.368-1.326l-.014-.676.014-.677c.033-.585.155-1.025.368-1.318.214-.293.539-.44.977-.44.437 0 .763.147.977.44.213.293.335.733.368 1.318.01.113.015.339.015.677s-.006.563-.015.676zm1.719-4.234c-.741-.671-1.762-1.006-3.064-1.006s-2.323.335-3.064 1.006c-.741.67-1.144 1.602-1.208 2.796-.01.147-.016.4-.016.762 0 .36.006.613.016.76.064 1.217.456 2.155 1.176 2.815.72.659 1.751.988 3.096.988 1.345 0 2.375-.33 3.096-.988.72-.66 1.112-1.598 1.176-2.815.021-.293.032-.546.032-.76 0-.215-.01-.468-.032-.762-.064-1.194-.467-2.126-1.208-2.796zm-31.111-.566a3.027 3.027 0 0 0-1.624-.44c-.587 0-1.107.112-1.56.338a3.17 3.17 0 0 0-1.112.895v-.641a.426.426 0 0 0-.112-.305.38.38 0 0 0-.289-.118h-1.967c-.107 0-.2.04-.28.118a.41.41 0 0 0-.12.305v7.944c0 .112.04.21.12.295.08.085.173.127.28.127h2.128a.367.367 0 0 0 .288-.127.43.43 0 0 0 .113-.295v-4.615c0-.495.121-.882.367-1.157.246-.276.581-.415 1.008-.415.437 0 .771.136 1 .406.229.27.344.66.344 1.166v4.615a.409.409 0 0 0 .416.422h2.128a.367.367 0 0 0 .288-.127.434.434 0 0 0 .112-.295v-4.716c0-.811-.136-1.505-.408-2.079-.272-.574-.646-1.008-1.12-1.301zm49.027 3.21h-2.545v-.033c0-.54.11-.96.329-1.259.219-.299.531-.449.937-.449.404 0 .72.15.944.45.224.298.335.717.335 1.258v.033zm2.472-1.462a3.63 3.63 0 0 0-1.424-1.605c-.635-.389-1.41-.583-2.327-.583-1.271 0-2.278.377-3.026 1.132-.745.755-1.14 1.803-1.183 3.144v.524c.021 1.409.406 2.481 1.153 3.22.746.738 1.77 1.107 3.071 1.107.822 0 1.533-.14 2.137-.422.602-.282 1.06-.62 1.375-1.015.314-.394.472-.738.472-1.03a.292.292 0 0 0-.104-.229.358.358 0 0 0-.247-.093h-2.097a.689.689 0 0 0-.28.042.843.843 0 0 0-.232.211 2.123 2.123 0 0 1-.44.414c-.155.108-.36.161-.616.161-.395 0-.699-.155-.912-.465-.213-.31-.325-.718-.337-1.225v-.102h5.073a.39.39 0 0 0 .296-.126.433.433 0 0 0 .12-.313v-.422c0-.868-.158-1.643-.472-2.325zm-62.87 3.052c-.03.596-.154 1.039-.367 1.326-.214.288-.538.431-.976.431-.437 0-.763-.143-.977-.431-.212-.287-.335-.73-.367-1.326l-.016-.676.016-.677c.032-.585.155-1.025.367-1.318.214-.293.54-.44.977-.44.438 0 .762.147.976.44.213.293.336.733.368 1.318a9.1 9.1 0 0 1 .016.677c0 .338-.006.563-.016.676zm1.72-4.234c-.741-.671-1.762-1.006-3.063-1.006-1.302 0-2.323.335-3.063 1.006-.743.67-1.145 1.602-1.209 2.796-.011.147-.016.4-.016.762 0 .36.005.613.016.76.064 1.217.456 2.155 1.175 2.815.721.659 1.753.988 3.097.988s2.376-.33 3.096-.988c.72-.66 1.111-1.598 1.176-2.815.021-.293.033-.546.033-.76 0-.215-.012-.468-.033-.762-.065-1.194-.467-2.126-1.208-2.796zm28.985 3.287c-.021.743-.192 1.285-.513 1.623-.32.338-.815.506-1.487.506h-1.6v-6.76h1.52c.672 0 1.181.172 1.528.515.347.344.53.877.552 1.598.022.315.031.732.031 1.25 0 .519-.01.941-.031 1.268zm1.68-5.974c-.875-.795-2.102-1.192-3.68-1.192h-4.208a.367.367 0 0 0-.288.127.456.456 0 0 0-.112.312v10.97c0 .112.04.21.12.295.08.085.173.127.28.127h4.288c3.21 0 4.869-1.544 4.976-4.631.01-.316.016-.744.016-1.284 0-.541-.006-.975-.016-1.302-.042-1.487-.502-2.629-1.376-3.422zM56.61 21.166c-.022.743-.192 1.285-.513 1.623-.32.338-.816.506-1.487.506h-1.6v-6.76h1.52c.672 0 1.181.172 1.527.515.348.344.53.877.553 1.598.02.315.031.732.031 1.25 0 .519-.01.941-.031 1.268zm1.68-5.974c-.876-.795-2.101-1.192-3.68-1.192H50.4a.367.367 0 0 0-.288.127.456.456 0 0 0-.112.312v10.97c0 .112.04.21.12.295.08.085.173.127.28.127h4.288c3.211 0 4.87-1.544 4.976-4.631.011-.316.017-.744.017-1.284 0-.541-.006-.975-.017-1.302-.042-1.487-.5-2.629-1.376-3.422z"/>
        <g>
            <mask id="b" fill="#fff">
                <use xlink:href="#a"/>
            </mask>
            <path fill="#FA6123" d="M39.757 19.884c0 10.9-8.835 19.734-19.735 19.734C9.124 39.618.29 30.783.29 19.884.289 8.984 9.124.15 20.022.15c10.9 0 19.735 8.835 19.735 19.734" mask="url(#b)"/>
            <path fill="#FEFEFE" d="M32.537 19.14l-1.327-1.327a1.324 1.324 0 0 0-1.873 0l-7.514 7.513-2.2-2.201a1.324 1.324 0 0 0-1.873 0l-1.328 1.327a1.324 1.324 0 0 0 0 1.873l4.465 4.465a1.324 1.324 0 0 0 1.872 0l9.778-9.778a1.324 1.324 0 0 0 0-1.872m-8.667-8.668l-1.328-1.328a1.324 1.324 0 0 0-1.872 0l-7.515 7.514-2.2-2.2a1.324 1.324 0 0 0-1.872 0l-1.328 1.327a1.325 1.325 0 0 0 0 1.873l4.464 4.464a1.324 1.324 0 0 0 1.872 0l9.78-9.777a1.324 1.324 0 0 0 0-1.873" mask="url(#b)"/>
        </g>
    </g>
</svg>
